<?xml version="1.0" standalone="no"?>
<!DOCTYPE svg PUBLIC "-//W3C//DTD SVG 20010904//EN"
 "http://www.w3.org/TR/2001/REC-SVG-20010904/DTD/svg10.dtd">
<svg version="1.0" xmlns="http://www.w3.org/2000/svg"
 width="200.000000pt" height="200.000000pt" viewBox="0 0 200.000000 200.000000"
 preserveAspectRatio="xMidYMid meet">
<metadata>
Created by potrace 1.16, written by Peter Selinger 2001-2019
</metadata>
<g transform="translate(0.000000,200.000000) scale(0.100000,-0.100000)"
fill="#000000" stroke="none">
<path d="M0 1000 l0 -1000 1000 0 1000 0 0 1000 0 1000 -1000 0 -1000 0 0
-1000z m1181 582 c132 -43 209 -145 209 -277 0 -117 -48 -194 -155 -248 l-49
-24 34 -8 c132 -28 222 -144 222 -285 0 -137 -59 -234 -175 -289 -98 -46 -144
-52 -439 -58 l-278 -6 0 613 0 612 283 -4 c253 -5 289 -7 348 -26z"/>
<path d="M770 1265 l0 -157 138 4 c123 3 143 6 186 28 62 32 89 78 83 139 -6
54 -32 90 -83 116 -32 17 -63 21 -181 23 l-143 4 0 -157z"/>
<path d="M770 756 l0 -176 138 0 c163 0 229 15 278 64 57 57 58 170 3 225 -43
43 -84 53 -261 58 l-158 5 0 -176z"/>
</g>
</svg>
