<?xml version="1.0" standalone="no"?>
<!DOCTYPE svg PUBLIC "-//W3C//DTD SVG 20010904//EN"
 "http://www.w3.org/TR/2001/REC-SVG-20010904/DTD/svg10.dtd">
<svg version="1.0" xmlns="http://www.w3.org/2000/svg"
 width="200.000000pt" height="200.000000pt" viewBox="0 0 200.000000 200.000000"
 preserveAspectRatio="xMidYMid meet">

<g transform="translate(0.000000,200.000000) scale(0.100000,-0.100000)"
fill="#000000" stroke="none">
<path d="M0 1000 l0 -1000 1000 0 1000 0 0 1000 0 1000 -1000 0 -1000 0 0
-1000z m810 14 c0 -247 -3 -373 -10 -369 -6 4 -10 140 -10 376 0 239 4 369 10
369 6 0 10 -132 10 -376z m960 238 l0 -89 -45 -1 c-55 0 -75 17 -75 63 0 40
36 71 70 60 17 -5 20 -2 20 24 0 21 5 31 15 31 12 0 15 -16 15 -88z m-1100
-45 c0 -137 -14 -205 -59 -296 -34 -66 -110 -154 -171 -196 l-40 -28 -58 44
c-105 82 -178 201 -203 333 -5 27 -9 98 -9 157 l0 109 270 0 270 0 0 -123z
m300 88 c0 -32 2 -35 30 -35 28 0 30 3 30 35 0 28 4 35 20 35 18 0 20 -7 20
-85 0 -78 -2 -85 -20 -85 -16 0 -20 7 -20 35 0 32 -2 35 -30 35 -28 0 -30 -3
-30 -36 0 -28 -3 -35 -17 -32 -15 3 -18 16 -21 86 -3 77 -2 82 18 82 16 0 20
-6 20 -35z m214 -21 c10 -10 16 -33 16 -64 l0 -48 -46 2 c-72 2 -91 56 -25 71
17 4 31 11 31 16 0 12 -27 12 -35 -1 -9 -15 -25 -12 -25 5 0 32 58 45 84 19z
m338 4 c16 -13 21 -37 19 -89 -1 -24 -5 -27 -46 -27 -36 -1 -47 3 -56 20 -10
18 -8 24 11 40 12 10 32 18 43 18 16 0 18 3 9 12 -9 9 -15 9 -24 0 -17 -17
-38 -15 -38 3 0 9 10 20 23 25 31 12 41 12 59 -2z m118 -8 c0 -11 -6 -20 -14
-20 -10 0 -16 -14 -18 -42 -2 -31 -8 -44 -20 -46 -16 -3 -18 5 -18 57 l0 60
33 4 c17 2 33 5 35 5 1 1 2 -7 2 -18z m-340 -1 c0 -4 -9 -13 -20 -19 -15 -8
-20 -21 -20 -51 0 -33 -3 -40 -17 -37 -14 2 -19 15 -21 60 l-3 57 41 -1 c22 0
40 -4 40 -9z m55 -19 c4 -16 10 -30 15 -30 5 0 11 14 15 30 4 20 13 30 25 30
18 0 18 -2 -2 -61 -26 -77 -51 -79 -79 -4 -24 62 -24 65 0 65 13 0 21 -9 26
-30z m21 -151 c10 -17 -13 -36 -27 -22 -12 12 -4 33 11 33 5 0 12 -5 16 -11z
m-327 -8 c9 -6 12 -20 9 -40 -3 -18 -1 -34 4 -37 12 -8 10 -48 -4 -62 -7 -7
-38 -12 -70 -12 l-58 0 0 80 0 80 53 0 c28 0 58 -4 66 -9z m81 -81 c3 -25 8
-44 13 -42 4 1 12 2 17 2 6 0 10 20 10 45 0 33 4 45 15 45 12 0 15 -13 15 -60
0 -56 -2 -60 -22 -59 -13 1 -30 -1 -39 -5 -28 -12 -49 20 -49 75 0 43 3 50 18
47 12 -2 18 -16 22 -48z m180 35 c17 -21 4 -32 -20 -17 -10 6 -21 8 -24 3 -7
-12 4 -21 25 -21 10 0 23 -9 29 -20 8 -15 6 -24 -10 -40 -25 -25 -41 -25 -71
-1 -28 22 -18 41 11 23 24 -15 40 -15 40 -2 0 6 -6 10 -14 10 -8 0 -24 8 -36
18 -19 16 -21 22 -11 40 14 26 62 30 81 7z m70 -45 c0 -53 -2 -60 -20 -60 -17
0 -20 7 -20 53 0 56 4 67 27 67 9 0 13 -17 13 -60z m127 48 c7 -6 13 -32 13
-59 0 -42 -3 -49 -20 -49 -17 0 -20 7 -20 46 0 38 -3 45 -17 42 -13 -2 -19
-15 -21 -46 -3 -34 -7 -42 -23 -42 -16 0 -19 7 -19 53 0 30 2 56 5 59 10 10
89 7 102 -4z m137 -10 c26 -36 20 -47 -29 -50 -37 -2 -43 -6 -35 -18 8 -12 13
-13 30 -2 27 16 40 15 40 -3 0 -30 -76 -39 -99 -11 -9 11 -14 39 -12 63 4 43
79 58 105 21z m116 7 c17 -21 4 -32 -20 -17 -10 6 -21 8 -24 3 -7 -12 4 -21
25 -21 10 0 23 -9 29 -20 8 -15 6 -24 -10 -40 -25 -25 -41 -25 -71 -1 -28 22
-18 41 11 23 24 -15 40 -15 40 -2 0 6 -6 10 -14 10 -8 0 -24 8 -36 18 -19 16
-21 22 -11 40 14 26 62 30 81 7z m121 -6 c11 -21 10 -21 -26 -15 -22 4 -35 4
-31 -2 3 -5 19 -12 36 -15 24 -5 30 -12 30 -32 0 -32 -38 -49 -75 -35 -27 10
-34 40 -10 40 8 0 15 -4 15 -10 0 -5 7 -10 15 -10 26 0 16 18 -15 29 -51 17
-34 71 22 71 18 0 31 -7 39 -21z m-623 -187 c3 -28 6 -31 22 -22 15 8 24 6 40
-10 27 -27 25 -103 -2 -108 -15 -3 -18 4 -18 41 0 48 -5 58 -26 50 -9 -3 -14
-21 -14 -49 0 -37 -3 -44 -20 -44 -18 0 -20 7 -20 83 0 46 3 87 7 91 14 13 28
-1 31 -32z m412 -52 c0 -73 -3 -90 -15 -90 -12 0 -15 17 -15 90 0 73 3 90 15
90 12 0 15 -17 15 -90z m-618 58 c26 -26 9 -37 -27 -18 -25 13 -55 8 -55 -9 0
-6 12 -13 28 -17 73 -15 92 -45 55 -86 -29 -32 -123 -15 -123 24 0 11 38 10
45 -2 3 -5 17 -10 31 -10 39 0 27 33 -16 41 -31 7 -60 31 -60 51 0 4 9 17 20
28 27 27 74 26 102 -2z m123 -30 c14 -6 25 -17 25 -25 0 -16 -22 -17 -38 -1
-16 16 -44 -9 -40 -36 3 -22 48 -37 48 -17 0 6 7 11 15 11 18 0 20 -21 3 -38
-16 -16 -60 -15 -82 1 -27 20 -18 88 14 104 30 15 24 15 55 1z m279 -9 c29
-23 33 -54 10 -87 -30 -43 -114 -15 -114 38 0 24 42 70 63 70 8 0 26 -9 41
-21z m149 -7 c39 -34 4 -102 -52 -102 -52 0 -81 69 -43 102 33 29 60 29 95 0z"/>
<path d="M1692 1244 c-13 -24 -3 -54 18 -54 21 0 33 25 25 51 -8 23 -31 25
-43 3z"/>
<path d="M150 1232 l0 -79 50 -50 c28 -28 50 -55 50 -61 0 -5 9 -12 20 -15 11
-3 20 -12 20 -20 0 -8 9 -17 20 -20 11 -3 20 -13 20 -22 0 -9 -9 -19 -20 -22
-11 -3 -20 -12 -20 -20 0 -8 -9 -17 -19 -20 -32 -8 -33 -42 -3 -81 20 -27 28
-31 30 -19 2 9 12 17 23 17 11 0 19 7 19 16 0 9 9 18 20 21 11 3 20 11 20 19
0 24 23 27 41 6 9 -12 22 -22 28 -22 10 0 15 -14 12 -32 0 -5 8 -8 19 -8 11 0
20 -4 20 -10 0 -19 19 -10 39 18 22 31 19 72 -5 72 -8 0 -18 8 -21 18 -4 9
-16 24 -27 33 -20 17 -15 39 10 39 8 0 14 7 14 16 0 9 9 18 20 21 11 3 20 12
20 20 0 8 9 17 19 20 11 3 21 13 24 24 3 10 13 19 22 19 9 0 14 4 10 9 -3 5 4
16 16 24 18 13 20 23 17 91 l-3 76 -252 0 -253 0 0 -78z m155 28 c3 -5 2 -10
-2 -10 -5 0 -9 -9 -9 -20 0 -11 5 -20 10 -20 14 0 -2 -13 -22 -18 -22 -4 -62
-4 -86 1 -17 3 -24 32 -17 72 2 10 120 5 126 -5z m150 -25 c0 -37 -41 -60 -80
-45 -18 7 -25 6 -25 -2 0 -6 -3 -9 -6 -5 -6 5 -8 52 -5 80 1 4 27 7 58 5 56
-3 57 -4 58 -33z m169 27 c2 -4 1 -14 -4 -22 -5 -8 -5 -19 1 -26 12 -14 -31
-27 -57 -17 -11 4 -15 3 -10 -5 4 -8 -3 -8 -26 -1 -18 5 -33 9 -34 9 -1 0 -1
13 0 29 0 21 4 27 12 20 8 -6 14 -6 18 0 3 5 0 12 -6 14 -7 3 13 6 44 6 31 1
59 -3 62 -7z m-124 -123 c0 -7 -20 -31 -44 -55 -44 -44 -76 -57 -76 -29 0 8
-7 15 -16 15 -9 0 -18 9 -21 19 -3 11 -13 21 -24 24 -10 3 -19 12 -19 21 0 14
15 16 100 16 68 0 100 -4 100 -11z m-186 -58 c13 -14 14 -21 5 -27 -8 -5 -10
-3 -5 7 4 8 1 6 -7 -4 -12 -15 -16 -15 -27 -3 -9 12 -9 18 2 30 7 8 13 15 14
16 0 0 9 -9 18 -19z m207 -25 c-25 -29 -48 -1 -27 32 7 12 11 11 24 -2 12 -12
13 -18 3 -30z m-105 -65 c-4 -5 0 -11 6 -14 9 -3 8 -10 -6 -23 -10 -11 -16
-14 -12 -8 3 7 -1 15 -10 18 -10 4 -13 2 -8 -7 5 -9 4 -9 -6 0 -10 9 -10 14 1
27 15 16 44 22 35 7z m-93 -138 c-5 -12 -21 -12 -40 0 -10 6 -10 12 -1 27 12
18 13 18 29 2 9 -9 14 -22 12 -29z m196 0 c-19 -22 -42 3 -27 30 10 20 11 20
24 2 10 -14 11 -22 3 -32z"/>
<path d="M250 1233 c0 -21 3 -24 9 -14 5 8 7 20 4 28 -8 21 -13 15 -13 -14z"/>
<path d="M211 1234 c0 -11 3 -14 6 -6 3 7 2 16 -1 19 -3 4 -6 -2 -5 -13z"/>
<path d="M370 1235 c0 -8 5 -15 10 -15 6 0 10 7 10 15 0 8 -4 15 -10 15 -5 0
-10 -7 -10 -15z"/>
<path d="M558 1226 c5 -18 7 -19 10 -3 3 15 6 16 20 6 14 -11 15 -11 5 1 -21
23 -41 21 -35 -4z"/>
<path d="M1130 1200 c0 -5 7 -10 15 -10 8 0 15 5 15 10 0 6 -7 10 -15 10 -8 0
-15 -4 -15 -10z"/>
<path d="M1470 1200 c0 -5 6 -10 14 -10 8 0 18 5 21 10 3 6 -3 10 -14 10 -12
0 -21 -4 -21 -10z"/>
<path d="M970 1056 c0 -11 10 -16 31 -16 38 0 35 24 -4 28 -19 2 -27 -1 -27
-12z"/>
<path d="M970 991 c0 -17 6 -21 31 -21 24 0 30 4 27 18 -2 10 -14 18 -31 20
-22 3 -27 -1 -27 -17z"/>
<path d="M1575 1020 c-4 -6 5 -10 19 -10 14 0 26 5 26 10 0 6 -9 10 -19 10
-11 0 -23 -4 -26 -10z"/>
<path d="M1402 801 c-21 -13 -11 -56 13 -56 15 0 20 7 20 29 0 31 -12 41 -33
27z"/>
<path d="M1534 796 c-10 -26 0 -51 21 -51 16 0 20 7 20 30 0 33 -30 49 -41 21z"/>
</g>
</svg>
