<?xml version="1.0" standalone="no"?>
<!DOCTYPE svg PUBLIC "-//W3C//DTD SVG 20010904//EN"
 "http://www.w3.org/TR/2001/REC-SVG-20010904/DTD/svg10.dtd">
<svg version="1.0" xmlns="http://www.w3.org/2000/svg"
 width="200.000000pt" height="200.000000pt" viewBox="0 0 200.000000 200.000000"
 preserveAspectRatio="xMidYMid meet">

<g transform="translate(0.000000,200.000000) scale(0.100000,-0.100000)"
fill="#000000" stroke="none">
<path d="M0 1000 l0 -1000 1000 0 1000 0 0 1000 0 1000 -1000 0 -1000 0 0
-1000z m1794 -316 l46 -7 0 -51 0 -51 -26 28 c-14 16 -37 32 -51 38 -58 22
-152 2 -167 -36 -9 -25 -7 -74 4 -95 6 -11 60 -45 120 -76 122 -62 140 -82
140 -156 0 -79 -59 -141 -146 -154 -24 -3 -74 0 -113 6 -74 14 -81 20 -81 83
0 34 13 35 35 1 44 -68 189 -71 225 -5 15 28 12 73 -5 98 -9 12 -62 44 -120
72 -121 58 -140 80 -140 157 0 118 102 172 279 148z m-1502 -24 c-20 -19 -22
-31 -22 -120 l0 -100 159 0 159 0 1 97 c1 86 -1 98 -20 120 l-22 23 76 0 77 0
-20 -20 c-19 -19 -20 -33 -20 -252 0 -224 1 -232 22 -255 l21 -23 -77 0 -77 0
20 26 c18 23 21 41 21 135 l0 109 -160 0 -160 0 0 -112 c0 -101 2 -114 22
-135 l21 -23 -77 0 -77 0 20 26 c20 25 21 39 21 252 0 218 -1 227 -22 249
l-21 23 78 0 79 0 -22 -20z m732 -198 c54 -116 102 -210 105 -207 2 3 43 99
90 213 l86 207 48 3 48 3 -16 -24 c-14 -23 -14 -44 0 -253 15 -207 18 -231 37
-251 l21 -23 -76 0 c-72 0 -98 10 -61 24 15 6 16 22 9 144 -3 76 -10 162 -13
192 l-7 54 -85 -207 c-58 -140 -90 -207 -100 -207 -10 0 -48 70 -110 203 -51
111 -95 204 -97 206 -8 11 -12 -15 -23 -164 -6 -88 -14 -168 -16 -177 -3 -11
5 -28 22 -43 l27 -25 -67 0 c-36 0 -66 3 -66 6 0 3 9 13 20 22 18 15 23 42 41
246 18 210 19 230 4 253 l-16 24 47 -3 48 -3 100 -213z"/>
</g>
</svg>
