<?xml version="1.0" standalone="no"?>
<!DOCTYPE svg PUBLIC "-//W3C//DTD SVG 20010904//EN"
 "http://www.w3.org/TR/2001/REC-SVG-20010904/DTD/svg10.dtd">
<svg version="1.0" xmlns="http://www.w3.org/2000/svg"
 width="200.000000pt" height="200.000000pt" viewBox="0 0 200.000000 200.000000"
 preserveAspectRatio="xMidYMid meet">

<g transform="translate(0.000000,200.000000) scale(0.100000,-0.100000)"
fill="#000000" stroke="none">
<path d="M0 1000 l0 -990 1000 0 1000 0 0 990 0 990 -1000 0 -1000 0 0 -990z
m858 811 c9 -1 12 -11 10 -28 -3 -24 -10 -30 -51 -40 -108 -27 -111 -36 -115
-428 -1 -182 1 -326 6 -334 6 -9 15 -10 25 -5 8 5 119 110 247 234 128 124
236 227 240 230 22 16 125 141 141 172 22 43 24 81 7 96 -7 5 -39 17 -70 26
-50 14 -58 20 -58 41 0 13 5 27 10 30 16 10 542 12 563 3 20 -10 23 -41 5 -55
-7 -6 -36 -18 -63 -27 -28 -9 -79 -36 -115 -60 -62 -42 -103 -78 -360 -316
-63 -58 -136 -126 -162 -149 -62 -56 -66 -73 -33 -123 76 -115 533 -717 575
-758 27 -26 80 -63 117 -81 48 -24 69 -40 71 -55 3 -21 1 -21 -202 -22 -189 0
-208 2 -230 19 -14 11 -103 126 -197 257 -303 416 -360 492 -373 492 -7 0 -40
-29 -74 -63 -42 -45 -62 -74 -67 -99 -4 -20 -5 -121 -3 -225 4 -246 12 -260
157 -307 58 -19 66 -24 66 -46 l0 -25 -343 -1 c-196 -1 -344 2 -348 7 -13 21
9 49 47 59 51 14 102 59 119 107 19 51 27 1165 10 1249 -16 76 -59 118 -137
134 -32 7 -68 18 -80 26 -26 16 -30 49 -9 61 11 6 576 9 674 4z"/>
</g>
</svg>
