<?xml version="1.0" standalone="no"?>
<!DOCTYPE svg PUBLIC "-//W3C//DTD SVG 20010904//EN"
 "http://www.w3.org/TR/2001/REC-SVG-20010904/DTD/svg10.dtd">
<svg version="1.0" xmlns="http://www.w3.org/2000/svg"
 width="200.000000pt" height="200.000000pt" viewBox="0 0 200.000000 200.000000"
 preserveAspectRatio="xMidYMid meet">

<g transform="translate(0.000000,200.000000) scale(0.100000,-0.100000)"
fill="#000000" stroke="none">
<path d="M0 1000 l0 -1000 1000 0 1000 0 0 1000 0 1000 -1000 0 -1000 0 0
-1000z m420 368 c1 -30 68 -222 73 -208 3 8 20 61 37 118 30 99 32 102 60 102
l30 0 0 -150 c0 -143 -1 -150 -20 -150 -18 0 -20 8 -22 122 l-3 121 -35 -119
c-45 -153 -57 -158 -94 -37 -57 186 -54 184 -55 41 -1 -121 -2 -128 -21 -128
-19 0 -20 7 -20 150 l0 150 35 0 c21 0 35 -5 35 -12z m398 -81 c54 -44 54
-143 2 -190 -27 -24 -39 -28 -68 -24 -45 8 -70 31 -83 80 -16 58 6 117 51 140
35 18 72 16 98 -6z m335 9 c15 -8 27 -11 27 -5 0 5 7 9 15 9 13 0 15 -21 15
-133 0 -126 -1 -135 -22 -154 -13 -11 -34 -23 -48 -26 -35 -9 -84 6 -88 26 -3
13 2 14 31 6 46 -13 83 2 91 36 9 34 3 40 -24 25 -12 -6 -34 -8 -50 -5 -90 20
-104 176 -20 217 42 21 38 21 73 4z m255 -10 c13 -8 20 -47 25 -139 l3 -69
-25 6 c-15 2 -40 0 -58 -6 -62 -22 -116 27 -94 85 12 30 62 57 106 57 18 0 25
5 25 20 0 39 -52 47 -92 13 -21 -18 -35 1 -17 24 25 30 87 34 127 9z m234 -3
c8 -10 13 -51 14 -109 2 -86 0 -94 -17 -94 -17 0 -19 8 -19 90 0 75 -3 91 -17
98 -21 11 -41 6 -65 -16 -14 -12 -18 -31 -18 -94 0 -63 -3 -78 -15 -78 -12 0
-15 19 -15 110 0 88 3 110 14 110 8 0 16 -5 18 -11 2 -7 13 -5 31 4 31 16 71
12 89 -10z m-702 0 c0 -15 1 -15 18 0 23 21 52 22 52 2 0 -8 -7 -15 -15 -15
-8 0 -24 -9 -35 -20 -16 -16 -20 -33 -20 -95 0 -68 -2 -75 -20 -75 -19 0 -20
7 -20 110 0 103 1 110 20 110 12 0 20 -7 20 -17z m-455 -377 c39 -17 63 -52
46 -69 -8 -8 -16 -5 -27 12 -22 30 -58 43 -90 31 -20 -8 -25 -16 -22 -38 3
-27 24 -41 115 -80 40 -17 57 -54 43 -97 -24 -72 -142 -82 -189 -16 -25 35
-26 41 -5 41 9 0 25 -11 36 -25 23 -30 87 -35 112 -9 34 33 11 67 -61 94 -72
27 -93 45 -93 81 0 42 10 60 44 75 40 17 49 17 91 0z m735 -126 c0 -122 2
-140 18 -149 14 -9 15 -12 3 -20 -8 -5 -24 -6 -35 -1 -20 7 -21 16 -24 159 -2
146 -2 151 18 151 19 0 20 -6 20 -140z m-572 87 c2 -24 8 -37 18 -37 8 0 14
-7 14 -15 0 -8 -7 -15 -15 -15 -24 0 -22 -155 3 -169 14 -9 15 -12 3 -20 -8
-5 -24 -6 -35 -1 -19 6 -21 16 -24 99 -2 72 -6 91 -17 91 -8 0 -15 7 -15 15 0
8 7 15 15 15 11 0 15 11 15 41 0 33 3 40 18 37 12 -2 18 -14 20 -41z m216 -49
c22 -21 25 -32 28 -115 3 -70 1 -93 -8 -93 -7 0 -16 4 -19 10 -4 6 -17 4 -35
-5 -38 -20 -52 -19 -84 6 -48 38 -23 111 44 125 53 12 60 16 60 34 0 29 -42
36 -79 14 -41 -24 -53 -9 -18 22 35 30 78 31 111 2z m230 1 c25 -19 26 -25 26
-115 0 -87 -2 -94 -20 -94 -18 0 -20 8 -22 97 -3 85 -5 98 -21 101 -10 2 -29
-4 -42 -12 -23 -15 -25 -22 -25 -101 0 -78 -2 -85 -20 -85 -19 0 -20 7 -20
110 0 103 1 110 20 110 11 0 20 -5 20 -11 0 -5 10 -3 22 5 30 21 50 20 82 -5z
m343 -2 c16 -16 35 -86 27 -99 -3 -4 -39 -8 -80 -8 -41 0 -74 -2 -74 -4 0 -23
25 -58 47 -67 22 -8 32 -6 56 12 20 14 32 18 39 11 28 -28 -51 -66 -105 -51
-43 11 -56 27 -68 76 -19 86 32 159 105 150 21 -3 45 -12 53 -20z m113 -63
c13 -41 27 -77 30 -79 4 -2 17 32 30 75 17 62 27 80 41 80 15 0 17 -4 9 -27
-5 -16 -25 -78 -45 -139 -37 -118 -55 -144 -98 -144 -36 0 -36 28 0 32 20 2
30 11 38 31 9 28 2 53 -63 235 -2 7 4 12 15 12 15 0 24 -16 43 -76z"/>
<path d="M729 1261 c-20 -16 -24 -29 -24 -70 0 -63 28 -98 69 -87 50 12 64
109 21 151 -29 30 -36 31 -66 6z"/>
<path d="M1093 1265 c-46 -32 -37 -149 12 -161 26 -6 64 10 66 29 7 61 5 118
-4 125 -24 19 -53 22 -74 7z"/>
<path d="M1312 1174 c-14 -10 -22 -24 -20 -36 9 -59 90 -41 96 20 3 29 1 32
-25 32 -16 0 -39 -7 -51 -16z"/>
<path d="M800 717 c-29 -10 -36 -18 -38 -44 -3 -25 1 -33 19 -38 31 -10 73 24
77 63 4 36 -3 38 -58 19z"/>
<path d="M1338 798 c-9 -7 -18 -22 -20 -33 -3 -18 3 -20 55 -23 62 -3 70 5 41
46 -17 24 -51 29 -76 10z"/>
</g>
</svg>
