<?xml version="1.0" standalone="no"?>
<!DOCTYPE svg PUBLIC "-//W3C//DTD SVG 20010904//EN"
 "http://www.w3.org/TR/2001/REC-SVG-20010904/DTD/svg10.dtd">
<svg version="1.0" xmlns="http://www.w3.org/2000/svg"
 width="1200.000000pt" height="1206.000000pt" viewBox="0 0 1200.000000 1206.000000"
 preserveAspectRatio="xMidYMid meet">

<g transform="translate(0.000000,1206.000000) scale(0.100000,-0.100000)"
fill="#000000" stroke="none">
<path d="M0 6030 l0 -6030 6000 0 6000 0 0 6030 0 6030 -6000 0 -6000 0 0
-6030z m6140 5751 c0 -27 -8 -49 -24 -68 -21 -25 -22 -34 -16 -88 9 -69 30
-132 65 -191 13 -22 46 -83 72 -135 39 -78 64 -110 143 -190 89 -89 102 -98
200 -141 302 -131 367 -148 615 -155 182 -5 208 -4 282 15 96 24 206 77 281
135 121 92 238 250 303 406 17 42 33 78 35 80 6 7 254 -101 254 -110 0 -5 -18
-18 -41 -29 -28 -15 -45 -33 -56 -58 -45 -106 -66 -237 -62 -372 4 -116 4
-114 115 -315 45 -82 75 -121 167 -213 62 -63 162 -157 222 -209 90 -79 130
-105 220 -148 157 -75 231 -96 355 -102 230 -11 458 84 660 277 l75 71 84 -88
c80 -82 83 -88 60 -93 -51 -11 -202 -196 -264 -325 -51 -107 -74 -196 -82
-314 -7 -101 9 -163 58 -231 16 -22 50 -89 75 -148 25 -59 75 -164 111 -234
54 -107 79 -144 159 -233 153 -169 272 -246 442 -286 74 -18 108 -20 222 -16
142 5 234 25 370 80 35 15 68 23 72 19 3 -4 18 -38 32 -76 25 -65 25 -69 9
-82 -10 -7 -22 -14 -26 -14 -5 0 -5 -9 -2 -20 5 -17 -3 -25 -52 -47 -120 -55
-208 -117 -308 -217 -114 -114 -168 -204 -206 -341 -20 -73 -21 -95 -17 -314
6 -259 14 -300 77 -400 16 -25 41 -79 55 -119 38 -106 71 -169 128 -246 152
-203 427 -326 731 -326 l77 0 0 -36 c0 -28 -9 -46 -37 -78 -55 -62 -78 -73
-162 -81 -312 -29 -575 -192 -700 -434 -50 -98 -108 -247 -131 -336 -25 -96
-54 -384 -47 -464 6 -74 38 -171 72 -216 12 -16 33 -56 48 -87 88 -194 259
-352 497 -458 41 -19 79 -37 84 -41 4 -4 -9 -16 -30 -28 -22 -11 -61 -38 -89
-61 -57 -48 -66 -48 -204 -6 -282 88 -550 35 -766 -152 -153 -132 -284 -303
-419 -547 -90 -162 -110 -230 -111 -370 0 -117 13 -173 61 -265 14 -25 48 -91
77 -146 58 -111 104 -178 184 -267 52 -59 58 -77 24 -77 -9 0 -48 -20 -86 -46
-84 -55 -96 -53 -178 22 -75 69 -159 127 -250 170 -110 51 -186 68 -312 68
-98 0 -120 -4 -205 -33 -298 -102 -652 -340 -786 -527 -170 -238 -186 -542
-42 -804 31 -57 31 -60 14 -78 -9 -11 -45 -34 -79 -52 -34 -18 -76 -43 -94
-56 -17 -13 -34 -24 -36 -24 -3 0 -24 38 -48 84 -23 47 -60 109 -81 138 -21
29 -52 81 -68 115 -60 121 -232 247 -395 288 -95 24 -311 20 -485 -10 -285
-48 -452 -103 -560 -183 -213 -159 -343 -398 -357 -660 -7 -116 -7 -117 -108
-161 -27 -12 -62 -33 -76 -47 l-26 -25 -7 32 c-3 17 -6 60 -6 94 0 156 -55
342 -143 485 -29 47 -61 103 -72 124 -24 48 -105 129 -160 161 -192 111 -588
215 -820 215 -307 -1 -569 -172 -754 -495 -28 -49 -59 -94 -68 -99 -42 -23
-185 -47 -199 -33 -3 3 10 48 29 99 54 146 72 236 72 373 0 82 -6 140 -18 185
-20 73 -77 199 -111 245 -12 16 -34 51 -49 76 -30 53 -273 297 -362 364 -67
50 -229 134 -318 165 -252 85 -539 17 -804 -192 -43 -33 -84 -66 -91 -71 -8
-6 -37 -14 -65 -17 -49 -7 -54 -5 -94 29 -24 19 -43 39 -43 45 0 5 33 43 73
85 186 195 281 428 262 644 -8 91 -22 136 -105 329 -79 183 -132 286 -174 334
-18 22 -61 82 -97 134 -35 52 -88 118 -116 147 -105 104 -270 178 -429 191
-196 18 -448 -38 -532 -118 -13 -12 -25 -20 -27 -19 -9 10 -84 193 -80 197 2
2 42 21 88 41 271 121 451 314 512 551 15 56 17 99 11 320 -3 140 -10 275 -15
300 -18 86 -102 298 -149 375 -26 42 -58 98 -72 124 -40 76 -68 109 -138 162
-117 88 -260 145 -427 168 -62 9 -75 8 -111 -10 -23 -11 -53 -30 -67 -43 l-26
-24 -3 72 c-2 39 -2 101 0 137 l3 66 117 6 c264 11 453 86 602 238 74 75 97
113 164 276 117 284 136 372 137 633 0 174 -41 311 -134 443 -23 34 -54 85
-67 112 -32 66 -118 152 -205 204 -85 51 -106 57 -155 42 -44 -13 -51 -13 -69
-2 -11 7 -4 32 34 127 26 66 51 123 56 128 4 4 41 -5 82 -22 143 -57 238 -77
382 -77 148 1 215 15 335 72 62 29 96 56 194 152 65 64 159 164 210 222 78 92
99 124 148 231 80 175 92 227 92 378 0 142 -14 205 -75 337 -50 110 -128 220
-207 294 l-65 61 99 99 99 99 74 -71 c85 -80 210 -166 296 -204 108 -48 217
-68 340 -62 102 5 118 8 225 52 176 71 398 181 448 222 234 191 335 329 383
522 18 73 21 104 16 225 -5 155 -25 247 -79 367 -17 38 -29 71 -27 73 6 5 232
95 247 98 8 2 24 -25 40 -67 88 -223 243 -396 435 -485 108 -51 164 -60 357
-60 285 0 375 12 540 69 170 60 260 113 356 213 155 160 233 370 235 629 l1
99 139 0 139 0 0 -39z"/>
<path d="M5170 10714 c-41 -7 -97 -16 -125 -20 -67 -8 -182 -47 -282 -95 -111
-53 -206 -141 -222 -205 -16 -61 -6 -105 34 -151 17 -21 42 -58 55 -83 17 -34
108 -178 125 -198 1 -1 56 13 121 31 229 66 598 136 714 137 19 0 41 4 48 9
26 16 45 122 46 256 1 118 -1 134 -22 174 -13 24 -26 58 -28 75 -2 19 -16 42
-34 59 l-30 27 -163 -1 c-89 -1 -196 -7 -237 -15z"/>
<path d="M6514 10711 c-103 -17 -188 -75 -220 -150 -23 -54 -18 -219 8 -323
l23 -88 50 -9 c27 -5 124 -19 215 -31 171 -23 347 -59 532 -110 59 -17 112
-30 117 -30 17 0 83 102 133 206 64 132 72 196 35 277 -14 31 -22 58 -19 62 3
3 -2 21 -12 40 -29 53 -156 104 -341 136 -122 22 -436 33 -521 20z"/>
<path d="M3720 10188 c-132 -55 -212 -97 -335 -176 -173 -112 -333 -271 -394
-389 -13 -26 -21 -61 -21 -92 0 -42 4 -53 28 -73 15 -12 38 -40 50 -60 27 -44
121 -127 211 -188 63 -42 63 -42 86 -24 203 164 451 334 637 437 l110 61 -6
56 c-7 68 -59 231 -92 287 -13 23 -24 51 -24 63 0 34 -36 76 -80 94 -45 18
-132 20 -170 4z"/>
<path d="M8016 10125 c-30 -30 -62 -67 -70 -82 -21 -43 -61 -170 -76 -246 -16
-80 -26 -68 130 -153 157 -85 343 -206 511 -331 l150 -113 42 27 c23 15 76 55
118 90 123 100 159 160 159 261 0 48 -5 65 -29 98 -15 21 -31 50 -34 64 -11
44 -75 108 -221 221 -143 111 -206 148 -329 194 -58 21 -84 25 -181 25 l-114
0 -56 -55z"/>
<path d="M5725 10114 c-225 -15 -515 -65 -760 -129 -252 -66 -610 -197 -610
-224 0 -6 18 -41 40 -76 37 -59 43 -65 75 -65 19 0 51 -8 70 -18 19 -11 46
-22 60 -25 14 -4 34 -20 45 -35 11 -16 56 -61 100 -100 68 -61 86 -72 116 -72
51 0 94 -42 104 -98 9 -58 -11 -167 -43 -232 -23 -47 -32 -55 -58 -58 -42 -4
-79 28 -115 102 -42 82 -56 96 -95 96 -30 0 -36 -5 -56 -47 -18 -37 -31 -49
-65 -62 -58 -23 -80 -46 -86 -93 -7 -52 -65 -114 -120 -129 -23 -6 -71 -7
-116 -3 -66 5 -85 3 -124 -14 -47 -21 -47 -21 -47 -70 0 -27 -6 -57 -15 -68
-23 -31 -18 -39 43 -67 41 -18 66 -37 86 -66 33 -47 45 -49 104 -21 23 11 52
25 65 29 12 5 41 23 64 39 39 30 58 60 117 195 l16 39 128 -4 c112 -3 131 -6
158 -25 42 -30 67 -85 71 -158 2 -33 6 -70 9 -83 7 -32 82 -112 106 -112 34 0
78 -57 79 -104 2 -29 3 -33 6 -13 4 27 17 35 28 17 3 -5 12 -10 18 -10 7 0 6
4 -3 10 -14 9 -7 14 13 11 5 -1 6 3 2 9 -3 5 -13 10 -21 10 -8 0 -14 4 -14 9
0 17 20 23 35 11 10 -8 15 -8 21 1 4 8 3 9 -4 5 -13 -8 -16 4 -4 19 6 9 23 14
60 17 8 1 9 5 3 11 -11 11 -4 37 10 37 5 0 9 -10 10 -22 0 -13 3 -17 6 -10 2
6 8 10 13 7 4 -3 14 3 21 12 10 12 10 14 2 9 -9 -5 -13 0 -13 16 0 17 -3 19
-9 9 -6 -9 -11 -10 -15 -2 -4 6 -1 12 6 13 7 0 18 2 23 3 6 2 16 3 23 4 7 0
10 6 6 12 -4 7 0 9 14 5 13 -4 22 -1 26 9 3 8 12 15 21 15 8 0 15 6 15 13 0 9
2 9 9 -1 7 -11 9 -11 14 1 3 8 25 17 49 22 33 5 39 9 24 14 -15 6 -17 9 -6 16
8 5 18 1 27 -10 7 -11 13 -13 13 -7 0 7 9 12 19 12 14 0 18 5 14 20 -3 11 0
20 6 20 6 0 11 -7 11 -15 0 -9 9 -15 23 -14 16 1 18 2 5 6 -10 2 -18 11 -18
19 0 9 8 14 18 13 34 -3 53 1 47 11 -6 9 1 12 23 9 4 -1 6 -6 4 -12 -1 -7 3
-5 10 4 13 16 58 27 143 35 28 3 71 9 97 13 28 5 53 4 64 -2 12 -7 19 -7 21 0
4 10 184 8 211 -2 7 -3 22 0 33 5 11 6 19 7 18 3 -3 -19 2 -27 9 -15 6 9 13 7
29 -7 19 -18 22 -18 38 -3 10 9 15 11 11 5 -7 -13 2 -17 42 -13 13 1 25 -6 29
-17 6 -16 8 -15 13 6 5 22 7 23 22 8 8 -9 19 -13 23 -9 4 4 5 0 3 -8 -2 -9 4
-14 14 -14 10 1 15 -2 12 -7 -3 -5 2 -9 10 -9 8 0 17 4 20 8 3 5 19 7 35 4 17
-2 28 -8 26 -13 -3 -4 -13 -6 -23 -3 -14 5 -15 4 -2 -5 8 -6 23 -8 32 -5 13 4
16 1 12 -10 -4 -11 0 -13 15 -9 12 3 33 -5 54 -21 26 -20 41 -25 64 -20 17 3
33 2 37 -4 4 -6 21 -4 48 5 24 9 86 17 138 19 99 4 230 23 230 33 0 16 -109
147 -155 187 -68 59 -86 68 -192 94 -98 24 -113 33 -113 64 0 27 42 60 99 77
35 10 51 24 86 74 57 80 73 127 61 186 -8 42 -6 50 18 81 14 19 26 39 26 44 0
5 -33 42 -72 82 -70 70 -72 74 -54 88 11 8 29 14 39 14 37 0 97 -23 102 -40 3
-9 19 -27 36 -39 28 -21 40 -23 96 -18 41 3 71 11 83 22 15 14 30 16 67 12 44
-5 93 7 93 23 0 4 -25 27 -56 51 -48 38 -54 47 -50 72 5 24 2 27 -20 27 -14 0
-44 13 -67 29 -28 19 -60 31 -97 36 -66 8 -259 74 -353 122 -38 19 -74 32 -80
30 -7 -2 3 -12 22 -21 18 -10 54 -33 80 -51 33 -24 63 -36 101 -41 44 -5 66
-16 106 -48 141 -114 194 -161 194 -173 0 -8 -11 -18 -24 -24 -19 -9 -33 -7
-72 11 -27 12 -85 35 -129 51 -44 17 -88 34 -97 40 -28 15 -44 11 -95 -21 -26
-17 -60 -30 -77 -30 -17 1 -67 20 -111 43 -65 34 -84 51 -108 90 l-29 48 16
59 c10 35 16 87 14 129 l-2 69 -55 6 c-70 7 -615 15 -696 10z m-255 -109 c0
-14 4 -25 9 -25 5 0 18 -17 28 -37 10 -21 41 -55 68 -75 53 -40 56 -51 34
-106 -14 -33 -13 -34 26 -68 91 -77 87 -71 82 -122 -6 -56 -51 -191 -97 -288
-44 -92 -117 -204 -132 -204 -20 0 -224 67 -257 85 -17 8 -50 46 -77 87 -65
101 -68 109 -57 160 7 32 6 57 -3 89 -20 65 -17 86 17 145 17 30 28 58 24 64
-3 5 -21 10 -38 10 -18 1 -43 9 -55 20 l-24 20 18 52 c21 65 58 141 76 155 7
6 36 13 63 16 132 16 234 33 241 40 4 4 18 7 31 7 18 0 23 -5 23 -25z m1005
-565 c25 -13 50 -18 67 -15 23 5 27 3 33 -25 4 -17 14 -34 23 -37 10 -3 58
-22 107 -43 50 -22 107 -42 128 -45 29 -5 43 -14 64 -46 29 -44 27 -49 -35
-73 -24 -9 -67 -32 -95 -51 -67 -46 -81 -46 -73 0 6 31 4 36 -19 47 -16 7 -25
19 -25 33 0 12 -9 30 -21 41 -19 17 -19 19 -3 31 26 19 13 24 -56 21 l-62 -3
48 -34 c27 -19 50 -35 51 -36 2 -1 5 -15 8 -31 6 -26 1 -32 -37 -56 -31 -19
-53 -26 -76 -23 -44 6 -52 12 -52 43 0 16 -8 32 -20 40 -38 23 -13 87 37 97
l33 6 -19 37 c-10 20 -33 47 -50 60 -35 26 -38 38 -14 64 19 22 11 22 58 -2z
m-564 -162 c53 -27 64 -37 64 -58 0 -36 -56 -70 -113 -70 -50 0 -127 32 -136
56 -7 18 24 66 57 89 32 22 57 19 128 -17z m9 -501 c0 -7 -9 -13 -20 -13 -22
0 -27 12 -7 19 21 9 27 8 27 -6z m270 4 c0 -6 -4 -13 -10 -16 -5 -3 -10 1 -10
9 0 9 5 16 10 16 6 0 10 -4 10 -9z m118 -31 c7 -11 9 -20 4 -20 -4 0 -13 9
-20 20 -7 11 -9 20 -4 20 4 0 13 -9 20 -20z m72 1 c0 -6 -4 -12 -8 -15 -5 -3
-9 1 -9 9 0 8 4 15 9 15 4 0 8 -4 8 -9z m-860 -91 c0 -5 -5 -10 -11 -10 -5 0
-7 5 -4 10 3 6 8 10 11 10 2 0 4 -4 4 -10z m-375 -199 c-3 -6 -11 -11 -17 -11
-6 0 -6 6 2 15 14 17 26 13 15 -4z"/>
<path d="M9402 9040 c-23 -10 -57 -31 -76 -45 -38 -29 -140 -150 -175 -208
l-23 -37 34 -42 c18 -24 60 -77 94 -119 130 -162 286 -396 389 -582 l38 -69
46 7 c71 10 222 62 282 98 59 36 93 79 110 141 22 79 -49 240 -216 491 -51 77
-100 156 -110 175 -26 51 -142 163 -196 188 -58 28 -138 29 -197 2z"/>
<path d="M2370 9033 c-29 -4 -54 -23 -145 -116 -222 -226 -373 -503 -377 -690
-1 -49 6 -60 105 -165 51 -54 134 -89 289 -121 l87 -18 68 121 c86 152 238
380 343 514 l81 104 -32 51 c-17 29 -44 68 -59 87 -15 19 -36 56 -48 82 -11
25 -39 67 -61 91 -56 61 -117 75 -251 60z"/>
<path d="M7950 8984 c0 -9 42 -45 77 -67 91 -57 175 -97 278 -132 159 -55 278
-139 223 -157 -9 -3 -6 -20 10 -63 12 -32 20 -61 16 -64 -3 -3 -32 22 -63 55
-73 80 -190 139 -304 154 -73 9 -234 72 -307 119 -60 40 -79 46 -93 28 -6 -9
-51 -27 -99 -40 -48 -13 -99 -32 -113 -41 -29 -19 -33 -56 -10 -96 20 -36 19
-42 -20 -87 -56 -66 -60 -106 -23 -252 30 -115 31 -128 21 -197 -6 -41 -16
-81 -23 -89 -7 -8 -38 -22 -69 -31 -63 -18 -81 -30 -81 -51 0 -11 7 -14 24
-11 16 3 27 0 31 -10 4 -10 0 -13 -13 -10 -11 3 -27 1 -37 -4 -30 -17 3 -28
86 -28 66 0 81 4 120 29 25 16 66 52 90 81 127 153 231 206 419 217 157 9 335
-33 409 -95 19 -16 46 -51 60 -78 36 -68 74 -85 209 -91 116 -6 154 -19 216
-73 18 -17 43 -30 54 -30 12 0 51 -7 88 -15 96 -23 100 -20 63 48 -22 42 -32
77 -36 126 -5 62 -4 70 15 80 11 6 27 9 34 7 7 -2 73 -24 146 -47 144 -48 164
-47 170 5 2 15 10 30 18 33 16 6 9 21 -90 170 -35 54 -67 92 -75 90 -9 -1 -29
25 -50 65 -29 54 -42 68 -66 72 -25 6 -34 1 -60 -30 l-30 -36 -33 36 c-19 21
-42 36 -55 36 -39 0 -139 76 -204 154 -25 31 -48 55 -50 52 -13 -13 18 -69 69
-122 55 -58 106 -152 91 -168 -12 -11 -70 -6 -109 10 -47 20 -140 93 -209 164
-51 53 -157 137 -233 184 -114 71 -234 136 -253 136 -9 0 -64 15 -122 34 -59
18 -107 32 -107 30z m10 -300 c55 -82 8 -106 -55 -29 -40 49 -40 75 -1 75 18
0 33 -12 56 -46z m153 -167 c52 -56 67 -84 67 -123 0 -27 -15 -30 -68 -11 -21
8 -51 36 -82 76 -54 70 -55 73 -39 102 18 34 66 16 122 -44z m436 -57 c24 -30
30 -45 25 -65 -3 -14 -10 -25 -15 -25 -10 0 -162 40 -165 43 -1 1 -5 19 -9 39
-7 34 -5 37 22 41 89 13 108 9 142 -33z"/>
<path d="M5680 8681 c0 -12 5 -21 10 -21 6 0 10 6 10 14 0 8 -4 18 -10 21 -5
3 -10 -3 -10 -14z"/>
<path d="M6441 8674 c0 -11 3 -14 6 -6 3 7 2 16 -1 19 -3 4 -6 -2 -5 -13z"/>
<path d="M5600 8670 c0 -5 7 -10 15 -10 8 0 15 5 15 10 0 6 -7 10 -15 10 -8 0
-15 -4 -15 -10z"/>
<path d="M2819 8608 c-331 -397 -612 -929 -763 -1448 -115 -394 -157 -675
-163 -1105 -5 -264 -3 -322 17 -485 34 -296 65 -450 140 -711 139 -479 364
-932 665 -1334 114 -152 214 -267 368 -424 322 -327 667 -576 1092 -789 190
-95 214 -105 232 -91 10 9 12 9 8 -2 -6 -16 -7 -15 192 -89 495 -183 1057
-269 1581 -241 376 20 708 77 972 166 57 19 113 32 125 29 14 -4 16 -3 7 4
-11 7 -9 10 7 15 12 3 19 1 15 -4 -9 -14 6 -11 101 25 181 68 253 99 410 177
180 88 269 137 333 180 23 16 45 29 47 29 8 0 149 95 230 154 356 262 663 570
920 922 74 102 225 337 225 350 0 2 11 22 25 44 14 22 56 102 94 177 133 265
241 559 319 868 41 160 89 431 78 442 -3 4 -6 -2 -6 -11 0 -10 -76 -96 -169
-192 -99 -102 -178 -192 -190 -217 -11 -23 -31 -94 -45 -157 -22 -103 -27
-117 -57 -143 -88 -76 -124 -116 -145 -162 -13 -27 -24 -55 -24 -60 0 -6 -20
-30 -45 -54 -25 -25 -62 -73 -82 -109 -43 -77 -63 -87 -188 -96 -49 -4 -121
-11 -160 -16 -101 -14 -209 -20 -222 -12 -17 11 -23 45 -13 82 29 113 49 183
54 188 13 13 -6 -89 -28 -156 -21 -60 -22 -73 -11 -89 12 -17 21 -19 77 -12
35 4 97 10 138 14 41 3 110 10 154 15 43 5 82 7 87 4 20 -12 69 29 99 83 18
32 54 81 80 108 26 28 53 67 59 87 18 54 64 112 131 165 48 37 61 53 66 82 3
20 17 80 30 135 29 121 52 154 250 354 l141 144 13 81 c63 400 46 889 -46
1307 -27 127 -95 384 -124 470 -53 161 -215 530 -232 530 -5 0 -7 3 -5 8 3 4
-6 27 -19 52 -12 25 -23 38 -24 30 0 -9 4 -20 9 -25 15 -16 25 -59 12 -51 -7
4 -11 -1 -11 -13 0 -12 5 -21 11 -21 5 0 8 -4 4 -9 -3 -5 -1 -12 4 -16 6 -3 8
-12 5 -19 -3 -8 -1 -17 5 -21 13 -7 15 -45 3 -45 -10 0 -8 -77 2 -105 5 -11
12 -32 18 -47 5 -15 10 -43 10 -62 0 -31 4 -37 29 -44 l30 -7 -21 -23 -21 -22
31 0 30 0 0 -390 0 -390 -25 0 c-21 0 -26 7 -40 58 -41 147 -57 193 -95 271
-124 256 -401 371 -866 360 -124 -4 -144 -7 -189 -29 -38 -19 -55 -35 -72 -70
-23 -44 -23 -44 -23 -577 l0 -533 29 0 c16 0 41 3 57 6 l29 5 -3 467 c-3 535
-3 537 69 566 83 33 394 15 567 -34 196 -55 312 -161 369 -339 24 -75 61 -264
58 -294 -2 -15 1 -25 6 -21 5 3 9 -11 9 -30 0 -20 -4 -36 -10 -36 -5 0 -10 -7
-10 -15 0 -8 -5 -15 -11 -15 -5 0 -8 4 -5 8 2 4 0 14 -6 22 -8 12 -9 12 -4 -2
3 -10 1 -18 -4 -18 -6 0 -10 -7 -10 -15 0 -8 4 -15 9 -15 11 0 -9 -83 -22 -91
-5 -4 -5 -9 2 -13 6 -4 11 -16 11 -28 0 -17 -2 -18 -15 -8 -13 10 -15 9 -15
-9 0 -12 7 -24 15 -27 18 -7 10 -24 -11 -24 -8 0 -14 7 -14 15 0 8 -8 15 -17
14 -10 0 -13 -3 -6 -5 8 -4 10 -16 6 -35 -3 -18 0 -35 8 -45 12 -15 11 -16 -9
-10 -21 7 -22 4 -22 -38 0 -39 -3 -46 -20 -46 -21 0 -23 -7 -20 -54 1 -21 -2
-26 -12 -20 -10 6 -11 5 -1 -8 7 -8 9 -18 5 -22 -4 -4 -7 -11 -7 -15 0 -4 -8
-15 -18 -25 -14 -14 -15 -21 -6 -32 9 -11 6 -16 -12 -23 -13 -5 -18 -10 -12
-10 15 -1 7 -56 -13 -85 -7 -10 -10 -25 -7 -34 4 -9 2 -13 -4 -9 -5 3 -10 24
-11 47 -4 91 -12 192 -17 200 -2 4 -7 131 -10 281 -10 503 -13 527 -64 544
-11 3 -23 15 -26 26 -9 27 -51 25 -66 -3 -7 -12 -8 -23 -3 -25 5 -2 8 -285 7
-670 -2 -681 -3 -691 -38 -680 -5 2 -20 49 -31 105 -44 210 -92 312 -186 399
-93 84 -235 133 -390 133 l-89 0 3 -547 c3 -531 4 -549 24 -593 27 -59 81
-106 146 -125 56 -16 98 -20 61 -5 -33 14 -28 30 10 30 l32 0 -3 55 c-2 32 3
74 12 102 35 106 33 126 -30 268 -65 151 -70 189 -30 258 28 48 34 109 16 182
-14 55 -37 172 -44 220 -5 34 -5 37 5 20 7 -11 13 -21 15 -23 1 -2 28 -10 60
-19 188 -49 290 -184 318 -423 3 -25 10 -83 16 -130 6 -54 15 -89 25 -96 16
-12 20 -34 7 -34 -4 0 -12 3 -17 8 -6 4 -9 5 -8 3 2 -2 -3 -11 -10 -19 -10
-13 -9 -15 5 -9 12 4 15 2 12 -8 -3 -8 -12 -11 -20 -8 -8 3 -17 -3 -21 -13 -8
-22 -35 -44 -45 -38 -4 3 -10 -11 -14 -31 -3 -19 -11 -38 -16 -41 -5 -3 -13
-17 -18 -30 -5 -13 -16 -24 -24 -24 -10 0 -13 -6 -10 -15 4 -8 1 -15 -5 -15
-6 0 -8 -7 -5 -15 4 -10 0 -13 -16 -10 -16 3 -20 0 -16 -10 3 -8 -3 -17 -15
-20 -11 -4 -19 -15 -19 -29 0 -26 -40 -52 -64 -43 -9 4 -16 2 -16 -3 0 -6 17
-10 38 -10 44 0 82 -9 82 -20 0 -4 -12 -13 -27 -20 l-28 -14 45 -6 c27 -3 45
-10 44 -17 -1 -7 -2 -19 -2 -25 -2 -10 -152 -13 -717 -13 l-714 0 -5 21 c-3
12 -15 24 -26 27 -12 3 -20 14 -20 26 0 22 -2 21 138 41 126 18 170 44 207
122 16 35 25 44 33 36 7 -7 15 -8 19 -4 5 4 8 503 8 1109 l0 1102 -26 56 c-42
90 -118 132 -258 145 -62 6 -70 9 -75 30 -4 15 -14 24 -26 24 -17 0 -20 -7
-20 -50 0 -32 4 -50 12 -50 6 0 25 -15 42 -33 27 -30 40 -35 110 -46 97 -14
155 -44 178 -91 16 -32 18 -74 18 -437 l0 -402 -37 -8 c-70 -14 -177 -7 -224
16 -24 11 -51 26 -60 32 -22 16 -69 3 -69 -19 0 -14 -2 -15 -10 -2 -5 8 -12
11 -16 7 -4 -3 -1 -13 5 -21 8 -10 9 -21 3 -32 -8 -15 -11 -14 -25 6 -8 12
-18 17 -21 11 -4 -5 -2 -12 4 -16 14 -8 13 -55 -1 -55 -6 0 -9 -7 -5 -15 3 -8
1 -15 -4 -15 -11 0 -26 -48 -21 -69 2 -12 0 -13 -12 -3 -12 10 -16 10 -20 0
-4 -10 -8 -10 -16 2 -7 10 -11 11 -11 3 0 -7 -8 -13 -17 -14 -11 0 -13 -3 -5
-6 6 -2 12 -10 12 -16 0 -7 9 -18 20 -25 21 -13 27 -32 10 -32 -5 0 -10 7 -10
15 0 8 -4 15 -9 15 -10 0 -25 -30 -22 -43 1 -4 -6 -7 -15 -5 -10 2 -18 -5 -20
-16 -4 -27 -24 -45 -24 -22 0 12 -5 16 -19 11 -10 -3 -24 1 -31 10 -7 8 -19
15 -26 15 -8 0 -14 5 -14 10 0 6 -8 14 -18 18 -9 4 -64 38 -122 77 -63 41
-269 151 -510 271 -223 111 -438 225 -478 254 -98 69 -126 124 -127 250 0 101
14 154 58 212 71 93 183 142 327 141 179 0 328 -64 465 -200 110 -111 216
-291 257 -438 28 -101 66 -135 152 -135 88 0 117 30 123 128 3 59 1 66 -28
100 l-31 37 2 230 c2 127 2 255 1 285 -2 30 -2 99 -1 153 1 60 -2 97 -8 97 -6
0 -14 9 -17 20 -8 26 -36 26 -66 0 -21 -17 -22 -22 -9 -32 13 -11 15 -69 12
-430 l-3 -418 -32 0 c-31 0 -33 3 -56 68 -83 235 -229 446 -386 557 -129 91
-227 125 -385 132 -89 4 -130 1 -180 -12 -231 -60 -350 -235 -320 -473 18
-137 78 -225 212 -313 35 -22 243 -131 463 -241 220 -110 427 -220 461 -243
110 -79 208 -197 269 -328 49 -103 66 -176 72 -309 5 -98 2 -132 -16 -211 -75
-326 -309 -548 -671 -638 -84 -20 -119 -23 -300 -24 -234 0 -289 9 -510 80
-169 55 -206 61 -252 42 -36 -15 -80 -65 -92 -103 -6 -21 -62 -42 -75 -28 -3
3 -8 210 -9 460 -4 430 -5 454 -22 454 -17 0 -18 -25 -22 -482 -3 -390 -2
-485 9 -494 7 -6 13 -19 13 -28 0 -73 170 -85 208 -14 9 17 28 43 40 59 32 39
74 38 213 -7 93 -30 113 -33 126 -22 18 15 21 28 -26 -132 -17 -58 -39 -136
-48 -174 -21 -82 -45 -104 -124 -115 -31 -4 -72 -17 -92 -30 -39 -24 -81 -85
-93 -136 -11 -49 -40 -81 -98 -108 -30 -14 -57 -31 -61 -37 -4 -6 -11 -38 -15
-72 -5 -35 -18 -74 -30 -89 -26 -37 -25 -58 5 -110 31 -55 66 -164 59 -184
-10 -26 5 -63 47 -111 35 -40 40 -52 37 -88 -3 -40 -4 -41 -53 -54 -63 -16
-164 -8 -216 18 -34 18 -45 34 -94 135 -60 126 -95 224 -95 264 0 14 -20 67
-45 116 -53 106 -81 225 -84 349 -3 117 -20 164 -97 261 -17 22 -37 50 -43 63
-14 25 -21 193 -8 185 4 -2 7 -11 7 -19 0 -24 65 -17 97 10 l28 24 -3 234 c-2
128 -5 252 -7 275 -2 23 -6 336 -10 695 -3 359 -8 664 -11 676 -5 23 -3 24 35
17 l40 -7 -6 64 c-2 35 -6 104 -6 153 l-2 90 -31 3 -30 3 4 60 c3 36 0 64 -7
73 -10 12 -6 16 22 25 l34 12 6 102 c2 56 10 113 16 127 17 35 79 77 137 91
79 19 132 48 139 78 22 81 7 153 -33 165 -11 4 -22 16 -25 26 -7 28 -57 26
-103 -5 l-37 -25 36 0 c39 0 51 -11 43 -38 -4 -13 -25 -22 -69 -31 -130 -27
-205 -80 -237 -168 -12 -32 -15 -251 -18 -1310 l-3 -1273 -32 0 c-26 0 -42 9
-73 43 -23 23 -331 395 -684 827 -354 432 -752 917 -884 1078 -188 229 -245
292 -261 290 -20 -3 -20 -6 -20 -908 0 -986 -1 -967 57 -1055 40 -60 100 -94
225 -125 57 -14 104 -29 103 -33 0 -4 0 -15 0 -24 0 -17 -28 -18 -440 -18
l-441 0 -5 21 c-3 12 -14 24 -25 27 -11 3 -19 14 -19 25 0 17 11 21 82 32 158
23 218 55 257 139 23 48 41 66 41 39 0 -9 3 -9 13 0 9 10 13 237 15 1052 l3
1038 -76 91 c-96 114 -177 186 -232 207 -24 9 -43 21 -43 25 0 5 -11 19 -25
31 -14 12 -25 30 -25 40 0 16 15 18 193 20 l192 3 -3 45 c-1 25 -12 76 -24
114 -20 64 -21 76 -10 151 14 95 44 188 72 227 28 38 34 76 20 127 -18 69 1
131 61 194 35 37 49 60 49 80 0 27 40 118 65 147 17 19 87 150 80 150 -2 0
-28 -28 -56 -62z m4403 -2690 c-7 -7 -12 -8 -12 -2 0 14 12 26 19 19 2 -3 -1
-11 -7 -17z m2303 13 c3 -5 1 -12 -5 -16 -5 -3 -10 1 -10 9 0 18 6 21 15 7z
m-491 -906 c-4 -8 -11 -15 -16 -15 -6 0 -5 6 2 15 7 8 14 15 16 15 2 0 1 -7
-2 -15z m-6017 -271 c13 -4 20 -10 17 -15 -8 -14 -50 -10 -64 6 -10 12 -9 15
6 15 11 0 29 -3 41 -6z m2695 -2040 c4 -3 -5 -29 -18 -57 -29 -63 -30 -96 -5
-139 11 -18 25 -55 31 -83 6 -27 18 -60 26 -72 23 -36 110 -80 173 -88 31 -3
91 -13 133 -22 58 -12 84 -14 100 -6 71 34 351 127 394 131 27 2 81 -1 120 -8
95 -18 124 -17 164 5 80 42 254 20 465 -60 77 -29 184 -81 200 -97 6 -5 -26 8
-70 30 -125 62 -310 121 -416 133 -88 10 -96 9 -171 -16 -44 -15 -86 -24 -96
-20 -29 11 -104 20 -172 20 -55 0 -93 -10 -253 -69 l-189 -69 -86 17 c-48 8
-106 18 -129 20 -54 6 -100 28 -151 72 -32 27 -43 45 -51 84 -6 28 -20 68 -31
90 -26 51 -25 89 2 145 12 24 19 48 15 51 -7 7 -72 -39 -99 -71 -10 -11 -27
-50 -38 -86 -17 -55 -30 -76 -88 -135 -70 -72 -138 -114 -188 -115 -68 -2
-196 15 -279 37 -94 25 -190 30 -260 15 -22 -5 -64 -12 -94 -16 -77 -10 -137
-29 -179 -60 l-37 -26 34 30 c39 35 100 57 181 66 30 4 84 13 118 21 64 14
135 9 220 -15 17 -5 32 -8 32 -6 0 2 19 -2 41 -10 23 -8 62 -15 88 -15 25 0
64 -5 85 -10 65 -15 137 19 222 104 65 64 74 78 93 142 18 60 29 79 71 118 45
42 77 56 92 40z m1794 -531 c-15 -8 -30 -12 -33 -10 -2 3 5 8 16 12 12 3 21
11 21 16 0 6 5 7 11 3 8 -4 2 -12 -15 -21z m-66 -28 c-14 -8 -29 -14 -35 -14
-5 0 1 6 15 14 14 8 30 14 35 14 6 0 -1 -6 -15 -14z m-70 -30 c-14 -8 -29 -14
-35 -14 -5 0 1 6 15 14 14 8 30 14 35 14 6 0 -1 -6 -15 -14z"/>
<path d="M6735 8580 c-3 -5 1 -10 9 -10 9 0 16 5 16 10 0 6 -4 10 -9 10 -6 0
-13 -4 -16 -10z"/>
<path d="M5340 8515 c-11 -13 -10 -14 4 -9 9 3 16 10 16 15 0 13 -6 11 -20 -6z"/>
<path d="M5290 8489 c0 -5 5 -7 10 -4 6 3 10 8 10 11 0 2 -4 4 -10 4 -5 0 -10
-5 -10 -11z"/>
<path d="M4705 8181 c-112 -55 -144 -103 -46 -68 96 34 136 17 129 -54 -3 -24
-8 -53 -12 -64 -6 -14 -5 -16 2 -7 7 11 10 11 15 -2 7 -19 -6 -28 -27 -20 -15
6 -21 -6 -16 -31 1 -5 -2 -7 -6 -3 -3 4 -27 -11 -52 -33 -25 -22 -74 -53 -108
-69 -82 -38 -126 -98 -188 -258 -15 -40 -40 -87 -54 -103 l-25 -30 142 2 c127
2 143 4 152 21 5 10 7 22 5 27 -11 17 26 22 38 6 10 -14 12 -14 12 3 0 15 -7
19 -28 18 -21 -2 -25 1 -16 11 5 7 8 19 5 26 -4 10 2 13 21 10 25 -3 25 -3 5
6 -14 7 -21 18 -20 33 1 27 18 42 29 25 5 -8 8 -7 8 5 0 10 -9 26 -21 36 -18
17 -18 20 -4 26 9 3 13 11 10 17 -4 6 -1 9 6 8 8 -1 22 1 31 5 14 7 16 12 7
28 -8 16 -8 23 2 29 8 5 10 9 4 9 -5 0 -15 11 -21 24 -9 20 -9 26 2 30 9 4 14
-2 15 -17 0 -22 0 -22 10 1 5 13 6 29 2 34 -4 7 -1 8 6 4 7 -5 10 -15 7 -23
-4 -9 -1 -13 6 -11 7 3 14 21 16 41 2 25 8 37 18 37 11 0 13 6 9 20 -4 11 -2
20 4 20 6 0 11 -4 11 -10 0 -5 6 -7 14 -4 8 3 12 13 9 25 -4 14 0 19 13 19 15
0 16 -2 5 -9 -8 -5 -9 -11 -3 -15 6 -3 18 8 27 26 9 18 10 27 3 20 -6 -6 -22
-12 -34 -12 -20 0 -21 2 -11 25 13 26 33 35 23 10 -3 -8 -1 -15 4 -15 6 0 10
9 10 20 0 12 -7 20 -17 20 -15 0 -16 2 -3 10 13 8 12 10 -2 10 -10 0 -18 4
-18 10 0 6 9 6 23 1 33 -13 53 1 38 25 -6 11 -11 13 -11 6 0 -7 -5 -10 -10 -7
-16 10 -2 25 23 25 38 -1 87 12 87 22 0 5 -10 8 -22 7 -13 -1 -30 1 -38 4 -36
15 -125 47 -130 47 -3 0 -32 -13 -65 -29z m200 -31 c3 -5 1 -10 -4 -10 -6 0
-11 5 -11 10 0 6 2 10 4 10 3 0 8 -4 11 -10z m-215 -402 c0 -13 -23 -5 -28 10
-2 7 2 10 12 6 9 -3 16 -11 16 -16z m-90 -198 c0 -5 -2 -10 -4 -10 -3 0 -8 5
-11 10 -3 6 -1 10 4 10 6 0 11 -4 11 -10z"/>
<path d="M4910 8100 c-14 -20 -16 -28 -7 -24 13 5 42 54 32 54 -2 0 -13 -13
-25 -30z"/>
<path d="M4863 8050 c1 -20 8 -25 20 -14 7 8 -3 34 -13 34 -5 0 -8 -9 -7 -20z"/>
<path d="M7334 7969 c-3 -6 -1 -16 5 -22 9 -9 10 -7 5 7 -5 13 -4 17 4 12 7
-4 12 -2 12 3 0 14 -17 14 -26 0z"/>
<path d="M7348 7903 c7 -3 16 -2 19 1 4 3 -2 6 -13 5 -11 0 -14 -3 -6 -6z"/>
<path d="M4688 7663 c7 -3 16 -2 19 1 4 3 -2 6 -13 5 -11 0 -14 -3 -6 -6z"/>
<path d="M4644 7602 c2 -9 13 -19 26 -20 25 -4 20 12 -10 28 -15 8 -18 6 -16
-8z"/>
<path d="M4675 7549 c-4 -6 -5 -12 -2 -15 2 -3 7 2 10 11 7 17 1 20 -8 4z"/>
<path d="M10180 7483 c-87 -31 -244 -128 -237 -146 2 -7 25 -84 50 -172 71
-247 121 -495 143 -717 l7 -67 51 -13 c30 -8 108 -13 191 -13 132 0 143 2 182
25 23 14 55 42 72 64 33 41 34 52 31 216 -4 208 -96 535 -190 670 -9 14 -20
41 -24 60 -11 60 -45 92 -107 101 -80 11 -119 9 -169 -8z"/>
<path d="M1555 7476 c-100 -44 -159 -157 -219 -420 -20 -86 -39 -310 -34 -402
3 -67 8 -85 33 -123 17 -24 44 -66 60 -94 45 -76 102 -102 220 -101 88 0 214
18 246 35 11 6 18 29 23 76 21 214 74 485 135 696 17 56 33 121 37 144 l6 42
-75 49 c-42 28 -110 64 -151 81 -65 27 -86 31 -163 31 -50 -1 -101 -6 -118
-14z"/>
<path d="M3045 7410 c-18 -19 -17 -20 2 -20 11 0 30 -15 44 -33 13 -19 314
-390 669 -826 355 -436 666 -819 693 -852 30 -37 55 -59 68 -59 20 0 20 3 17
728 -4 832 1 784 -93 879 -55 55 -122 83 -232 98 -43 6 -52 10 -57 31 -4 15
-14 24 -26 24 -16 0 -20 -7 -20 -35 0 -30 -5 -37 -37 -52 -58 -28 -64 -59 -25
-138 53 -107 41 -195 -25 -195 -20 0 -49 24 -122 100 l-96 100 -55 0 c-36 0
-75 -9 -115 -26 -33 -14 -89 -34 -124 -45 -35 -10 -71 -25 -80 -33 -15 -14
-18 -13 -30 7 -25 39 -213 271 -260 320 -50 52 -69 57 -96 27z m1360 -523 l90
-22 3 -69 3 -69 -38 6 c-21 3 -72 15 -113 27 -79 21 -69 22 -300 -10 -101 -14
-117 -12 -151 18 -31 27 -31 29 -16 58 16 31 49 64 82 82 35 19 335 5 440 -21z
m54 -617 l36 -21 0 -192 c0 -166 3 -197 19 -231 37 -77 -12 -135 -59 -70 -38
53 -309 389 -318 396 -6 3 25 24 69 46 43 23 99 52 124 66 55 31 82 32 129 6z"/>
<path d="M6523 7413 c3 -2 43 -15 174 -58 42 -14 42 -13 30 6 -18 30 -73 50
-144 53 -34 1 -61 1 -60 -1z"/>
<path d="M5312 6862 c-48 -49 -66 -245 -38 -403 21 -116 61 -237 103 -309 23
-39 80 -107 143 -170 148 -149 166 -161 245 -168 36 -2 65 -8 65 -12 0 -13 73
-52 341 -186 137 -68 254 -122 260 -119 22 14 6 -45 -35 -129 -25 -50 -57
-134 -71 -186 -91 -321 -109 -357 -204 -417 -33 -21 -60 -41 -61 -44 0 -10 70
-19 155 -19 227 0 380 89 462 267 31 68 37 75 48 60 11 -16 14 -12 25 34 17
68 8 178 -20 252 -28 73 -116 170 -208 228 -37 23 -203 109 -369 190 -464 226
-615 336 -742 540 -84 136 -116 320 -89 509 8 58 15 105 14 106 -1 0 -11 -11
-24 -24z"/>
<path d="M9118 6617 c-11 -9 -14 -23 -10 -52 l5 -40 13 50 c15 56 14 60 -8 42z"/>
<path d="M9645 6400 c3 -5 8 -10 11 -10 2 0 4 5 4 10 0 6 -5 10 -11 10 -5 0
-7 -4 -4 -10z"/>
<path d="M7429 6367 c-1 -4 -2 -10 -3 -14 -1 -5 -5 -15 -11 -23 -7 -13 -6 -13
8 -2 9 8 22 10 29 6 9 -5 8 -2 -2 12 -8 10 -16 21 -17 23 -2 2 -4 1 -4 -2z"/>
<path d="M9587 6273 c-4 -3 -7 -11 -7 -17 0 -6 5 -5 12 2 6 6 9 14 7 17 -3 3
-9 2 -12 -2z"/>
<path d="M7340 6225 c-10 -12 -10 -15 4 -15 9 0 16 7 16 15 0 8 -2 15 -4 15
-2 0 -9 -7 -16 -15z"/>
<path d="M10332 5778 c-21 -10 -55 -21 -77 -24 -22 -3 -54 -7 -71 -10 l-32 -5
-7 -82 c-19 -240 -71 -529 -137 -765 l-31 -113 29 -25 c16 -13 80 -50 141 -80
91 -46 125 -57 178 -61 56 -5 71 -2 118 22 57 28 66 42 117 160 68 159 114
487 91 657 -11 84 -39 185 -69 248 -34 71 -177 116 -250 78z"/>
<path d="M1462 5761 c-67 -23 -119 -65 -157 -126 -28 -46 -30 -54 -29 -149 1
-157 71 -473 117 -525 8 -9 29 -51 47 -93 58 -140 140 -246 208 -269 71 -23
181 10 309 93 43 27 82 53 86 58 4 4 -5 52 -21 106 -68 228 -121 511 -147 786
-4 37 -12 72 -20 78 -7 6 -41 16 -76 22 -35 6 -76 17 -91 24 -39 20 -162 17
-226 -5z"/>
<path d="M5340 5561 c-7 -14 -7 -20 2 -23 6 -2 22 -45 34 -95 61 -250 190
-476 347 -611 62 -54 214 -135 275 -147 l33 -7 -26 26 c-15 15 -52 39 -83 55
-213 107 -361 309 -447 610 -14 47 -36 108 -50 135 -14 27 -25 55 -25 63 0 20
-48 16 -60 -6z"/>
<path d="M9727 4148 c-13 -24 -42 -74 -62 -113 -21 -38 -59 -104 -83 -145 -25
-41 -50 -84 -56 -95 -18 -32 -102 -155 -150 -220 -25 -33 -60 -82 -80 -110
-19 -27 -49 -66 -65 -85 -17 -19 -31 -39 -31 -43 0 -25 65 -113 145 -193 78
-80 97 -94 145 -108 76 -22 135 -10 191 37 196 168 407 537 433 759 6 48 4 65
-15 105 -12 26 -23 58 -24 69 -2 34 -33 73 -83 105 -46 29 -186 79 -222 79
-11 0 -28 -17 -43 -42z"/>
<path d="M2160 4154 c-221 -66 -339 -168 -342 -297 -1 -47 26 -104 60 -130 9
-6 37 -52 61 -100 81 -161 192 -320 304 -430 203 -203 308 -218 453 -66 33 35
79 92 103 127 l42 63 -54 67 c-156 193 -299 407 -430 645 -52 94 -86 147 -96
146 -9 0 -54 -11 -101 -25z"/>
<path d="M4931 3557 c16 -34 29 -74 29 -88 0 -39 25 -114 74 -224 56 -123 85
-161 134 -174 51 -15 162 -13 192 2 38 20 32 69 -14 116 -39 41 -59 85 -51
112 4 11 1 36 -5 57 -15 51 -83 191 -93 192 -5 0 -5 -4 -2 -10 9 -14 -31 -12
-47 3 -7 6 -28 17 -45 24 -27 9 -33 9 -33 -3 0 -8 -5 -14 -11 -14 -6 0 -8 7
-5 16 3 8 2 13 -3 9 -5 -3 -12 1 -14 7 -3 8 -6 6 -6 -4 -1 -10 -6 -18 -11 -18
-6 0 -10 7 -8 16 2 10 -3 19 -11 22 -10 3 -12 0 -8 -12 4 -9 2 -16 -2 -16 -5
0 -12 7 -15 16 -4 10 -14 14 -26 11 -11 -3 -20 -2 -20 3 0 4 -6 10 -14 13 -10
4 -5 -14 15 -56z m169 -18 c0 -6 -4 -7 -10 -4 -5 3 -10 11 -10 16 0 6 5 7 10
4 6 -3 10 -11 10 -16z"/>
<path d="M3193 2823 c-144 -109 -223 -220 -223 -315 0 -45 4 -53 68 -125 221
-251 514 -436 749 -473 119 -19 181 16 237 133 28 60 76 226 76 265 0 6 -35
29 -77 52 -199 108 -420 256 -613 409 -63 51 -122 96 -130 100 -11 6 -36 -7
-87 -46z"/>
<path d="M8702 2837 c-23 -18 -92 -71 -154 -118 -62 -47 -142 -106 -177 -130
-35 -24 -81 -56 -103 -71 -21 -16 -40 -28 -42 -28 -2 0 -43 -24 -92 -53 -49
-29 -110 -63 -135 -76 -25 -13 -58 -34 -73 -46 -26 -21 -26 -21 -11 -65 9 -24
28 -65 43 -90 15 -25 34 -63 43 -86 22 -56 73 -128 108 -153 16 -12 52 -26 79
-33 45 -10 58 -9 114 11 172 62 364 187 513 335 88 87 119 126 145 178 28 59
32 75 26 115 -3 27 -19 69 -35 94 -15 25 -31 57 -34 71 -8 32 -72 104 -129
145 l-44 31 -42 -31z"/>
<path d="M4660 2048 c-11 -12 -43 -68 -72 -125 -46 -92 -53 -113 -56 -177 -4
-72 -4 -73 36 -119 23 -26 49 -61 59 -78 31 -52 180 -112 410 -165 101 -23
142 -27 283 -28 145 -1 174 2 235 21 103 33 142 84 152 202 5 63 -20 267 -36
283 -3 3 -57 11 -119 18 -249 24 -556 89 -830 175 -39 13 -44 12 -62 -7z"/>
<path d="M7225 2035 c-63 -21 -223 -64 -300 -80 -192 -41 -257 -52 -494 -80
-68 -7 -126 -16 -129 -19 -2 -3 -9 -45 -15 -93 -13 -112 -3 -192 28 -235 14
-18 38 -53 54 -79 50 -75 96 -105 172 -113 124 -13 367 22 535 79 175 58 302
132 345 201 32 53 24 156 -20 244 -44 88 -111 190 -125 189 -6 0 -29 -7 -51
-14z"/>
</g>
</svg>
