<?xml version="1.0" standalone="no"?>
<!DOCTYPE svg PUBLIC "-//W3C//DTD SVG 20010904//EN"
 "http://www.w3.org/TR/2001/REC-SVG-20010904/DTD/svg10.dtd">
<svg version="1.0" xmlns="http://www.w3.org/2000/svg"
 width="200.000000pt" height="200.000000pt" viewBox="0 0 200.000000 200.000000"
 preserveAspectRatio="xMidYMid meet">

<g transform="translate(0.000000,200.000000) scale(0.100000,-0.100000)"
fill="#000000" stroke="none">
<path d="M0 1000 l0 -1000 1000 0 1000 0 0 1000 0 1000 -1000 0 -1000 0 0
-1000z m1360 502 c0 -223 -10 -282 -63 -371 -58 -97 -230 -231 -297 -231 -64
0 -229 126 -290 220 -60 93 -70 147 -70 376 l0 204 360 0 360 0 0 -198z m-680
-708 l0 -85 22 15 c24 17 65 21 84 8 23 -15 34 -53 34 -121 0 -41 4 -71 10
-71 6 0 10 -4 10 -10 0 -5 -18 -10 -40 -10 -22 0 -40 5 -40 10 0 6 5 10 10 10
17 0 12 146 -6 164 -20 21 -43 20 -66 -1 -14 -13 -18 -31 -18 -90 0 -42 4 -73
10 -73 6 0 10 -4 10 -10 0 -5 -20 -10 -45 -10 -25 0 -45 5 -45 10 0 6 7 10 15
10 13 0 15 24 15 155 0 87 -4 155 -9 155 -31 0 -44 -23 -93 -171 -29 -87 -55
-159 -58 -159 -3 0 -21 46 -39 103 -56 171 -47 168 -98 32 -24 -66 -48 -124
-52 -128 -7 -7 -75 186 -96 276 -4 15 -17 34 -28 42 -20 14 -17 15 43 14 36
-1 57 -3 48 -6 -10 -2 -18 -9 -18 -14 0 -26 64 -229 70 -222 4 4 26 63 50 131
24 68 46 120 50 115 5 -4 25 -63 46 -131 22 -72 41 -117 45 -110 4 7 20 57 35
111 27 97 28 100 9 113 -17 13 -15 14 26 15 24 1 55 5 69 9 14 4 28 8 33 9 4
1 7 -38 7 -85z m651 -34 c28 0 39 -4 39 -15 0 -11 -11 -15 -40 -15 l-41 0 3
-87 3 -88 40 1 39 2 -23 -19 c-26 -21 -71 -25 -89 -7 -8 8 -12 45 -12 100 0
71 -3 90 -16 95 -12 5 -9 12 18 40 30 31 33 33 36 14 3 -17 11 -21 43 -21z
m-121 -45 c0 -18 -21 -24 -43 -13 -9 5 -22 6 -27 3 -13 -8 -13 -165 0 -165 6
0 10 -4 10 -10 0 -5 -20 -10 -45 -10 -25 0 -45 5 -45 10 0 6 5 10 10 10 6 0
10 35 10 85 0 74 -2 85 -17 85 -10 1 -3 7 16 16 26 11 36 12 42 3 5 -9 13 -7
29 4 25 18 60 7 60 -18z m-212 12 c6 -7 12 -51 14 -97 3 -78 5 -85 22 -82 17
3 18 2 7 -12 -17 -20 -50 -21 -58 -1 -5 14 -8 14 -29 0 -50 -33 -102 -9 -90
41 5 19 20 32 56 47 47 21 50 24 50 60 0 37 -1 38 -32 35 -25 -2 -34 -9 -38
-28 -6 -26 -40 -41 -40 -18 1 47 109 91 138 55z m544 -16 c29 -26 33 -35 33
-81 0 -46 -4 -55 -33 -81 -45 -41 -102 -41 -143 0 -25 25 -29 37 -29 81 0 44
4 56 29 81 41 41 98 41 143 0z m108 13 c0 -14 2 -14 22 0 12 9 34 16 48 16 14
0 36 -7 48 -16 20 -13 22 -24 22 -95 0 -62 3 -81 15 -85 30 -12 14 -24 -30
-24 -25 0 -45 5 -45 10 0 6 5 10 10 10 15 0 13 153 -2 168 -17 17 -48 15 -70
-5 -24 -22 -27 -163 -3 -163 8 0 15 -4 15 -10 0 -5 -20 -10 -45 -10 -25 0 -45
5 -45 10 0 6 5 10 10 10 6 0 10 33 10 80 0 65 -3 82 -16 87 -13 5 -10 9 12 19
39 17 44 17 44 -2z"/>
<path d="M680 1565 c0 -69 3 -95 13 -95 44 -1 347 -1 475 -1 l152 1 0 95 0 95
-320 0 -320 0 0 -95z"/>
<path d="M853 1318 l-142 -131 17 -29 c25 -43 72 -98 83 -98 5 0 50 39 99 87
l90 86 68 -64 c95 -92 115 -109 123 -109 9 0 58 59 81 98 l18 30 -144 131
c-80 72 -146 131 -148 130 -2 0 -67 -59 -145 -131z m184 58 c24 -21 26 -27 18
-52 -6 -18 -21 -33 -39 -39 -25 -8 -31 -6 -52 18 -30 35 -30 42 1 72 30 31 37
31 72 1z m-153 -129 c21 -16 24 -60 6 -82 -21 -25 -72 -15 -89 16 -29 53 34
102 83 66z m308 -4 c36 -33 13 -93 -37 -93 -49 0 -72 55 -38 92 20 22 51 23
75 1z"/>
<path d="M930 617 c-17 -8 -25 -21 -25 -37 0 -21 5 -25 30 -25 27 0 30 3 33
38 3 40 -1 43 -38 24z"/>
<path d="M1434 709 c-28 -32 -27 -131 3 -160 26 -26 66 -20 84 14 17 30 13
114 -6 143 -19 30 -55 31 -81 3z"/>
</g>
</svg>
